<svg width="127" height="20" viewBox="0 0 127 20" fill="none" xmlns="http://www.w3.org/2000/svg">
<g id="Asset 2">
<g id="Group 2">
<path id="_Compound_Path_" fill-rule="evenodd" clip-rule="evenodd" d="M31.8557 15.2943V1.64121C31.8482 1.21652 32.0151 0.807398 32.3173 0.509759C32.6172 0.205072 33.0195 0.0233325 33.4458 0H36.4976L39.5012 11.6579L42.5063 0.00302528H47.1498V15.2943H44.2337V2.97233L41.138 15.2943H37.9112L34.7718 2.97233V15.2943H31.8557Z" fill="#454448"/>
<path id="_Compound_Path_2" fill-rule="evenodd" clip-rule="evenodd" d="M49.3024 12.4319C49.5189 13.2689 49.9696 14.0215 50.5982 14.5958C51.1752 15.1311 51.9467 15.5093 52.9128 15.7303C53.8613 15.9534 54.8487 15.9299 55.7862 15.6618C56.8574 15.4212 57.7995 14.7687 58.4207 13.837C58.7646 13.3027 59.0266 12.717 59.1977 12.1004C59.4145 11.303 59.5169 10.4771 59.5014 9.64912C59.5014 8.34135 59.2557 7.19782 58.7642 6.21851C58.2795 5.15181 57.4121 4.32093 56.345 3.90102C55.3183 3.53746 54.221 3.43827 53.1487 3.61209C52.0252 3.74309 50.9911 4.30683 50.2533 5.19054C49.7701 5.76999 49.4226 6.45625 49.2375 7.19629C49.0249 7.97943 48.9162 8.78871 48.9146 9.60198C48.9111 10.5596 49.0417 11.5128 49.3024 12.4319ZM51.853 9.8062C51.794 8.45382 52.0677 7.43701 52.6741 6.75575C52.9462 6.50661 53.2731 6.32967 53.6265 6.24025C54.0503 6.10576 54.5045 6.11321 54.9239 6.26153C55.3544 6.41259 55.7357 6.75474 56.0679 7.28798C56.4001 7.82123 56.5662 8.62312 56.5662 9.69367C56.5352 10.8828 56.3495 11.7435 56.003 12.2788C55.6566 12.8141 55.2585 13.1501 54.8162 13.2824C54.3839 13.4163 53.9209 13.4003 53.4982 13.2368C53.0648 13.0736 52.7621 12.8734 52.5901 12.6362C52.1576 12.1019 51.9119 11.1586 51.853 9.8062Z" fill="#454448"/>
<path id="_Compound_Path_3" fill-rule="evenodd" clip-rule="evenodd" d="M71.8562 15.2919H70.261C69.8418 15.3116 69.4334 15.1624 69.1367 14.8812C68.8399 14.6 68.6824 14.213 68.7032 13.8158V7.93952C68.7032 7.25068 68.483 6.74635 68.0427 6.42653C67.6186 6.1174 67.0978 5.95118 66.5628 5.95419C66.0327 5.94834 65.5168 6.11683 65.1031 6.43096C64.6721 6.74488 64.4566 7.24773 64.4566 7.93952V15.2919H61.2678V8.54472C61.2678 6.58448 61.8079 5.27273 62.8879 4.60947C63.9577 3.94997 65.1956 3.57665 66.4709 3.52898C67.7777 3.52012 69.0601 3.86474 70.1675 4.52238C71.2943 5.18662 71.8572 6.5274 71.8562 8.54472V15.2919Z" fill="#454448"/>
<path id="_Compound_Path_4" fill-rule="evenodd" clip-rule="evenodd" d="M84.0329 12.0032H81.8725C81.5909 11.9891 81.3127 12.071 81.0806 12.2361C80.9457 12.3255 80.8343 12.4479 80.7561 12.5923C80.7119 12.6395 80.6702 12.6825 80.631 12.723C80.5917 12.7635 80.5548 12.8016 80.5202 12.8389C80.4526 12.9075 80.371 12.9595 80.2813 12.9911C79.8978 13.2061 79.4655 13.3113 79.0293 13.2956C78.2787 13.2956 77.7168 13.0596 77.3437 12.5816C76.9396 12.1356 76.7243 11.4536 76.6963 10.5312H84.1642C84.199 10.4307 84.2135 10.324 84.2069 10.2176V9.72589C84.205 7.76523 83.7439 6.23385 82.8237 5.13174C81.873 4.06312 80.5335 3.52881 78.8051 3.52881C77.1633 3.52881 75.8813 4.07834 74.9591 5.17741C74.0665 6.24907 73.6201 7.73631 73.6201 9.63912C73.6201 11.6323 74.0807 13.1636 75.0019 14.2333C75.9231 15.3323 77.2051 15.8819 78.8479 15.8819C80.2017 15.8829 81.3254 15.5409 82.219 14.8559C83.1117 14.2003 83.7163 13.2494 84.0329 12.0032ZM81.1018 8.5254H76.6969C76.7195 7.75311 76.9353 7.15892 77.3443 6.74284C77.757 6.3216 78.3201 6.09518 78.9001 6.1172C79.5917 6.1172 80.1226 6.32574 80.4986 6.74284C80.8437 7.12645 81.0457 7.72317 81.1018 8.5254Z" fill="#454448"/>
<path id="_Compound_Path_5" fill-rule="evenodd" clip-rule="evenodd" d="M86.4426 19.9071V17.4956H87.2645C87.8441 17.4956 88.2994 17.3564 88.6306 17.0779C88.9617 16.7995 89.0268 16.3564 88.8257 15.7427L84.7971 4.11743H88.1324L90.4712 12.3626L92.5069 5.16978C92.6794 4.47121 93.1416 4.12192 93.8936 4.12192H95.9737L91.5548 17.4132C91.2069 18.3783 90.7737 19.0654 90.2553 19.4745C89.7339 19.8248 88.8819 20 87.6992 20H87.0916C86.9861 19.9676 86.8776 19.9465 86.7678 19.9371C86.6602 19.9198 86.5515 19.9098 86.4426 19.9071Z" fill="#454448"/>
<path id="_Compound_Path_6" fill-rule="evenodd" clip-rule="evenodd" d="M125.076 0.588012H123.497V15.6629H126.562V2.03554C126.57 1.64614 126.41 1.27207 126.123 1.00821C125.844 0.73424 125.467 0.582978 125.076 0.588012ZM101.439 10.2809V15.6643H98.3269V2.17447C98.3241 1.75521 98.4895 1.3523 98.7862 1.05582C99.0829 0.759348 99.486 0.594037 99.9055 0.596847H105.035C106.644 0.596847 107.841 1.00608 108.626 1.82455C109.445 2.64103 109.854 3.85279 109.854 5.45982C109.854 6.98112 109.459 8.17743 108.669 9.04874C107.881 9.86621 106.742 10.2754 105.25 10.2764L101.439 10.2809ZM101.439 7.56178H104.464C105.283 7.56178 105.868 7.38831 106.218 7.0354C106.598 6.7139 106.788 6.16061 106.788 5.36955C106.788 4.69962 106.613 4.15979 106.263 3.75005C105.853 3.40013 105.312 3.22468 104.64 3.22368H101.439V7.56178ZM117.513 15.7739C118.193 15.6981 118.853 15.4952 119.458 15.1757C120.083 14.8508 120.608 14.3624 120.976 13.7626C121.4 13.1056 121.612 12.1929 121.612 11.0246V7.03637C121.648 6.05256 121.165 5.12195 120.341 4.58395C119.523 4.02867 118.295 3.75102 116.658 3.75102C115.197 3.75102 114.071 4.08649 113.281 4.75741C112.596 5.31356 112.156 6.11533 112.054 6.99151H114.994C115.124 6.68364 115.379 6.44517 115.694 6.33504C116.047 6.2129 116.418 6.15318 116.791 6.15859C117.215 6.16545 117.636 6.2319 118.041 6.35597C118.494 6.48906 118.72 6.76421 118.72 7.21283C118.721 7.79702 118.078 8.17585 116.791 8.34932C116.528 8.38072 116.293 8.41661 116.09 8.46147C115.917 8.50085 115.74 8.52239 115.563 8.52577C114.453 8.69625 113.539 9.04517 112.823 9.57254C112.107 10.0999 111.749 10.9762 111.749 12.2014C111.75 13.5154 112.144 14.4579 112.932 15.0292C113.738 15.6023 114.706 15.9012 115.694 15.8815C116.302 15.8777 116.909 15.8417 117.513 15.7739ZM118.756 9.79281C118.209 10.0446 117.636 10.2356 117.047 10.3625L116.038 10.5794C115.512 10.7289 115.13 10.9173 114.898 11.1506C114.705 11.4356 114.597 11.7706 114.59 12.1151C114.573 12.5037 114.716 12.8822 114.987 13.1619C115.249 13.3962 115.629 13.5133 116.125 13.5133C116.944 13.5133 117.588 13.2795 118.056 12.812C118.522 12.3454 118.756 11.7009 118.756 10.8844V9.79281Z" fill="url(#paint0_linear_19771_26796)"/>
</g>
<g id="Group">
<path id="Fill 1" fill-rule="evenodd" clip-rule="evenodd" d="M10.151 3.8208L10.1475 3.81855C9.48128 3.52104 8.83153 3.26975 8.21729 3.05982C8.37648 2.97366 8.53568 2.88814 8.69552 2.80679C9.04381 2.62153 9.38852 2.46351 9.73355 2.31434C10.2652 2.08062 10.7962 1.86395 11.3321 1.68126C11.364 1.66548 11.3989 1.66548 11.4276 1.64228C12.2748 1.34752 13.1292 1.11521 13.9891 0.986816L14.8666 1.56093L14.8695 1.56304C14.7885 1.58895 14.7085 1.6149 14.6274 1.64581C14.0581 1.84574 13.4939 2.06273 12.9309 2.31434C12.5862 2.46094 12.2404 2.62396 11.8957 2.80583C11.7105 2.89648 11.5181 3.00507 11.3321 3.11283C10.9371 3.33097 10.5436 3.56855 10.151 3.8208Z" fill="#F1ECFF"/>
<path id="Fill 2" fill-rule="evenodd" clip-rule="evenodd" d="M14.9971 6.78094C14.4216 6.32573 13.8429 5.91463 13.2673 5.54352C13.5306 5.33346 13.7948 5.12839 14.0616 4.93492C14.2464 4.78997 14.4313 4.6453 14.6179 4.51709C14.9565 4.26479 15.3023 4.02881 15.6474 3.81155C16.1027 3.52898 16.5622 3.2643 17.0264 3.00513L18.5529 4.00323C18.4952 4.04317 18.4384 4.08182 18.3807 4.12273C18.1868 4.24837 17.9993 4.37337 17.8187 4.51901C17.6321 4.6453 17.4441 4.78786 17.2599 4.93318C16.7262 5.31236 16.2027 5.74969 15.6788 6.18142C15.6745 6.18142 15.6648 6.2049 15.6601 6.2049C15.4388 6.3913 15.2178 6.58216 14.9971 6.78094Z" fill="#F1ECFF"/>
<g id="Group 6">
<mask id="mask0_19771_26796" style="mask-type:luminance" maskUnits="userSpaceOnUse" x="0" y="0" width="15" height="8">
<path id="Clip 4" fill-rule="evenodd" clip-rule="evenodd" d="M0 0.990723H14.079V7.23349H0V0.990723Z" fill="white"/>
</mask>
<g mask="url(#mask0_19771_26796)">
<path id="Fill 3" fill-rule="evenodd" clip-rule="evenodd" d="M14.2473 1.16898L14.2398 1.1837C14.1809 1.20723 14.1359 1.23372 14.0759 1.24843L13.9526 1.02775C13.9773 1.03657 14.003 1.04834 14.0276 1.06011" fill="#4E4E4B"/>
<path id="Fill 5" fill-rule="evenodd" clip-rule="evenodd" d="M4.31381 2.37812C3.78185 2.5953 3.25021 2.86864 2.72527 3.17423C1.8081 3.66603 0.894648 4.26156 -0.00268555 4.95054C0.124738 5.04734 0.259599 5.143 0.389272 5.24416C0.785133 5.54314 1.17741 5.86578 1.57052 6.21795C1.66456 6.29797 1.76117 6.38239 1.85572 6.46553C1.95182 6.55027 2.04605 6.63497 2.14266 6.72521C2.18913 6.76804 2.23606 6.81156 2.27977 6.85182C2.32753 6.89015 2.37271 6.93395 2.41849 6.97618C2.50624 7.05959 2.59757 7.14791 2.68725 7.23407H2.69143C3.58536 6.3779 4.49225 5.62096 5.41135 4.95054C5.94382 4.53445 6.48065 4.17265 7.02409 3.83015C7.42477 3.56583 7.82816 3.32821 8.23385 3.10462C6.84891 2.63409 5.62748 2.35914 4.68708 2.20483C4.56305 2.26215 4.4377 2.31759 4.31381 2.37812Z" fill="#4E4E4B"/>
</g>
</g>
<path id="Fill 7" fill-rule="evenodd" clip-rule="evenodd" d="M13.9998 1.02494C13.1397 1.15333 12.2857 1.38582 11.4385 1.68068C11.4096 1.7036 11.3747 1.7036 11.343 1.71965C10.8071 1.90216 10.2758 2.11906 9.7441 2.35246C9.39925 2.50195 9.0544 2.6597 8.70634 2.84496C8.54655 2.92658 8.38721 3.01187 8.22788 3.09808C6.84298 2.6276 5.62156 2.35246 4.68115 2.19839C5.11554 2.00488 5.55406 1.83888 5.99671 1.68068C6.33283 1.55641 6.68181 1.44589 7.01839 1.35831C7.55012 1.19552 8.08507 1.08638 8.6168 1.01485L8.62048 1.01256C8.64986 0.994214 8.6765 0.994214 8.70634 0.994214C9.16277 0.923138 9.61002 0.850685 10.0646 0.814918C10.2579 0.799785 10.4512 0.786946 10.6459 0.777775C10.904 0.764935 11.1639 0.758057 11.4265 0.758057C11.6548 0.758057 11.8811 0.764935 12.1057 0.777316C12.2783 0.786946 12.4505 0.799785 12.6223 0.814918C13.0654 0.847934 13.5039 0.918094 13.9465 0.990546H13.947L13.9998 1.02494Z" fill="#282826"/>
<path id="Fill 8" fill-rule="evenodd" clip-rule="evenodd" d="M10.1412 3.83203C9.61935 4.16582 9.09946 4.52647 8.58541 4.91872C8.04761 5.29855 7.51657 5.73349 6.9864 6.18645C6.06468 6.96807 5.16285 7.85336 4.26758 8.79703C4.80409 9.35922 5.32879 9.95686 5.85336 10.5904C6.23761 11.0443 6.62024 11.5145 6.99866 12.0034C7.88777 10.8626 8.79622 9.7927 9.72372 8.81555C10.2476 8.25286 10.7864 7.71001 11.3223 7.22032C11.9649 6.613 12.6137 6.04664 13.267 5.52732L13.2655 5.52585C12.2018 4.83724 11.1466 4.2789 10.1412 3.83203Z" fill="#4E4E4B"/>
<path id="Fill 9" fill-rule="evenodd" clip-rule="evenodd" d="M22.7176 1.01118L22.7121 1.01164C21.8296 1.15609 20.9461 1.39224 20.0764 1.68251C20.0447 1.69994 20.013 1.69994 19.9814 1.71782C19.4436 1.90033 18.9059 2.11677 18.376 2.37035L18.3751 2.37081C18.0363 2.51388 17.6919 2.67758 17.3521 2.8422C17.2474 2.89723 17.145 2.95914 17.0417 3.01416H17.0398L14.8752 1.59951C15.1384 1.50826 15.3992 1.42526 15.6627 1.35648L15.666 1.35556C16.1959 1.19323 16.7267 1.08455 17.2625 1.01164L17.2644 1.01072C17.2965 0.994214 17.3204 0.994214 17.3521 0.994214C17.8057 0.919928 18.2548 0.847017 18.7076 0.813084C19.0483 0.78557 19.3853 0.768603 19.7265 0.761267C19.8408 0.758974 19.9556 0.758057 20.0714 0.758057C20.1705 0.758057 20.2702 0.758974 20.3698 0.761267C20.6669 0.768603 20.964 0.78557 21.2611 0.813084C21.2854 0.814001 21.3102 0.814918 21.3346 0.815835C21.763 0.856647 22.1877 0.922679 22.6083 0.994214C22.6428 0.994214 22.6786 1.01026 22.7121 1.01026L22.7176 1.01118Z" fill="#282826"/>
<g id="Group 13">
<mask id="mask1_19771_26796" style="mask-type:luminance" maskUnits="userSpaceOnUse" x="8" y="1" width="10" height="18">
<path id="Clip 11" fill-rule="evenodd" clip-rule="evenodd" d="M8.63721 1.60815H17.8485V18.4107H8.63721V1.60815Z" fill="white"/>
</mask>
<g mask="url(#mask1_19771_26796)">
<path id="Fill 10" fill-rule="evenodd" clip-rule="evenodd" d="M14.6439 4.53452C14.9825 4.28222 15.3283 4.04625 15.6733 3.82894C16.1287 3.54642 16.5881 3.28174 17.0523 3.02256H17.0503L14.886 1.60791C14.805 1.63382 14.725 1.65977 14.6439 1.69073C14.0746 1.89061 13.5104 2.1076 12.9474 2.35921C12.6027 2.50581 12.2569 2.66883 11.9122 2.85069C11.727 2.94135 11.5346 3.04994 11.3486 3.1577C10.9536 3.37584 10.5601 3.61342 10.1675 3.86567C11.1729 4.31253 12.2282 4.87087 13.2918 5.55949L13.2933 5.56096C13.5565 5.35089 13.8207 5.14582 14.0875 4.95236C14.2724 4.80736 14.4573 4.66273 14.6439 4.53452Z" fill="#282826"/>
<path id="Fill 12" fill-rule="evenodd" clip-rule="evenodd" d="M14.0977 7.66749C13.7187 8.05186 13.3328 8.432 12.9466 8.84695C12.4098 9.41043 11.8862 10.0089 11.3618 10.6257C11.3584 10.6257 11.3584 10.6419 11.3484 10.6419C10.8164 11.2752 10.2874 11.9254 9.76294 12.6188C9.38324 13.1235 9.00662 13.6302 8.63721 14.1773C9.16563 14.9552 9.68924 15.7294 10.2087 16.548C10.5956 17.145 10.9729 17.7627 11.3484 18.4124C11.7202 17.7627 12.1021 17.145 12.4875 16.548C13.0076 15.7517 13.5309 14.9552 14.0593 14.1936C14.067 14.1773 14.0725 14.1773 14.0806 14.1597C14.6039 13.4332 15.1373 12.7064 15.6759 12.0342C16.0514 11.5461 16.4366 11.0735 16.818 10.6257C17.1593 10.2105 17.5032 9.82056 17.8485 9.43927C16.9314 8.42861 15.9803 7.55166 15.023 6.79761C14.7129 7.07504 14.4037 7.3598 14.0977 7.66749Z" fill="#4E4E4B"/>
</g>
</g>
<path id="Fill 14" fill-rule="evenodd" clip-rule="evenodd" d="M24.3503 1.35425H24.3324C23.9868 1.42817 23.6485 1.53304 23.3017 1.65997C23.1188 1.71733 22.9415 1.79125 22.7645 1.86164C22.3755 2.00503 21.9905 2.17144 21.6001 2.35102C21.2618 2.49487 20.915 2.66146 20.5747 2.82352C20.383 2.93192 20.1969 3.02276 20.0075 3.13295C20.0011 3.13295 19.9937 3.13295 19.9904 3.15065C19.5193 3.40616 19.0533 3.68093 18.5945 3.99348L21.4922 5.88962C21.899 5.53846 22.3101 5.21802 22.7187 4.92344C22.7255 4.9073 22.7255 4.9073 22.7296 4.9073C22.9168 4.76088 23.111 4.63555 23.2927 4.50927C23.6351 4.25504 23.9789 4.0215 24.322 3.81804C24.6972 3.564 25.072 3.34687 25.4506 3.13295C25.6442 3.02276 25.8251 2.93192 26.0207 2.82352C26.3594 2.64261 26.7044 2.47634 27.043 2.33203C26.1545 1.93529 25.2593 1.60664 24.3503 1.35425Z" fill="#282826"/>
<path id="Fill 15" fill-rule="evenodd" clip-rule="evenodd" d="M18.3967 4.13195C18.2028 4.2576 18.0154 4.3826 17.8347 4.52824C17.6481 4.65452 17.4602 4.79709 17.2759 4.94241C16.7422 5.32159 16.2188 5.75892 15.6948 6.1906C15.6905 6.1906 15.6808 6.21413 15.6762 6.21413C15.4548 6.40053 15.2338 6.59138 15.0132 6.79017C15.9705 7.54422 16.9216 8.42117 17.8388 9.43183C18.0251 9.22741 18.2109 9.02431 18.3967 8.82181C18.4009 8.82181 18.4091 8.80471 18.4119 8.80471C18.9384 8.23995 19.4705 7.73429 19.9977 7.22708C20.1809 7.04228 20.3575 6.88202 20.5445 6.71996C20.7337 6.53599 20.9292 6.37618 21.1195 6.21413C21.2347 6.10994 21.3486 6.007 21.4667 5.90859L18.569 4.01245C18.5112 4.05239 18.4544 4.09105 18.3967 4.13195Z" fill="#282826"/>
<path id="Fill 16" fill-rule="evenodd" clip-rule="evenodd" d="M14.0791 1.01026L14.0837 1.01072C14.6131 1.08501 15.1485 1.19415 15.6779 1.35464L15.6812 1.35556C16.0196 1.44589 16.3635 1.55503 16.7019 1.68251C17.2704 1.88198 17.8333 2.09842 18.3903 2.36989L18.3912 2.37035C18.9211 2.5877 19.452 2.85917 19.9768 3.16824L19.9796 3.16962C20.8993 3.65706 21.8071 4.2564 22.7066 4.94286L22.7076 4.94378C22.4458 5.13408 22.1823 5.33309 21.9191 5.54357C21.8751 5.57888 21.831 5.61465 21.7869 5.65087C21.684 5.73433 21.5816 5.82008 21.4797 5.90767C21.3645 6.00626 21.2492 6.1076 21.1353 6.21169C21.0637 6.27268 20.9916 6.33367 20.9195 6.39557L20.9122 6.40199C20.8185 6.4827 20.7248 6.56524 20.6311 6.65145C20.6256 6.65649 20.6197 6.662 20.6141 6.66704C20.5958 6.68401 20.5774 6.70097 20.559 6.7184C20.5361 6.73903 20.5127 6.75921 20.4897 6.77985C20.4438 6.82066 20.3979 6.86147 20.3524 6.90274C20.239 7.00637 20.1265 7.1123 20.0154 7.22556L20.0145 7.22465C19.1186 6.37356 18.2108 5.61281 17.2906 4.94378L17.2897 4.94286C16.7593 4.52603 16.2234 4.16515 15.6802 3.81939L15.6779 3.81802C15.1214 3.45805 14.5585 3.13064 13.9895 2.8422C13.6433 2.65924 13.2985 2.49737 12.9522 2.35063C12.4219 2.11722 11.8911 1.90033 11.3534 1.71782C11.3217 1.69994 11.29 1.69994 11.2574 1.68251C10.3891 1.37344 9.51388 1.13958 8.63087 1.01072L8.62811 1.01026C8.59551 0.993756 8.57164 0.993756 8.53857 0.993756C9.05056 0.902044 9.56255 0.83005 10.075 0.813084C10.2692 0.797034 10.4625 0.784653 10.6563 0.77594C10.9148 0.764018 11.1738 0.758057 11.4369 0.758057C11.6651 0.758057 11.8911 0.763559 12.1161 0.775482C12.2887 0.784653 12.4604 0.797034 12.6326 0.813084C13.0758 0.8461 13.5143 0.916259 13.9569 0.988712H13.9574C13.9679 0.990087 13.979 0.991921 13.9895 0.993756" fill="#ECBA3E"/>
<path id="Fill 17" fill-rule="evenodd" clip-rule="evenodd" d="M22.7066 4.94286C21.8071 4.2564 20.8993 3.65706 19.9796 3.16962L19.9768 3.16824C19.452 2.85917 18.9211 2.5877 18.3912 2.37035L18.3903 2.36989C17.8333 2.09842 17.2704 1.88198 16.7019 1.68251C16.3635 1.55503 16.0196 1.44589 15.6812 1.35556L15.6779 1.35464C15.1485 1.19415 14.6131 1.08501 14.0837 1.01072L14.0791 1.01026L13.9895 0.993756C13.979 0.991921 13.9679 0.990087 13.9574 0.988712H13.9569C13.5143 0.916259 13.0758 0.8461 12.6326 0.813084C12.4604 0.797034 12.2887 0.784653 12.1161 0.775482C11.8911 0.763559 11.6651 0.758057 11.4369 0.758057C11.1738 0.758057 10.9148 0.764018 10.6563 0.77594C10.4625 0.784653 10.2692 0.797034 10.075 0.813084C9.56255 0.83005 9.05056 0.902044 8.53857 0.993756C8.57164 0.993756 8.59551 0.993756 8.62811 1.01026L8.63087 1.01072C9.51388 1.13958 10.3891 1.37344 11.2574 1.68251C11.29 1.69994 11.3217 1.69994 11.3534 1.71782C11.8911 1.90033 12.4219 2.11722 12.9522 2.35063C13.2985 2.49737 13.6433 2.65924 13.9895 2.8422C14.5585 3.13064 15.1214 3.45805 15.6779 3.81802L15.6802 3.81939C16.2234 4.16515 16.7593 4.52603 17.2897 4.94286L17.2906 4.94378C18.2108 5.61281 19.1186 6.37356 20.0145 7.22465L20.0154 7.22556C20.1265 7.1123 20.239 7.00637 20.3524 6.90274C20.3979 6.86147 20.4438 6.82066 20.4897 6.77985C20.5127 6.75921 20.5361 6.73903 20.559 6.7184C20.5774 6.70097 20.5958 6.68401 20.6141 6.66704C20.6197 6.662 20.6256 6.65649 20.6311 6.65145C20.7248 6.56524 20.8185 6.4827 20.9122 6.40199L20.9195 6.39557C20.9916 6.33367 21.0637 6.27268 21.1353 6.21169C21.2492 6.1076 21.3645 6.00626 21.4797 5.90767C21.5816 5.82008 21.684 5.73433 21.7869 5.65087C21.831 5.61465 21.8751 5.57888 21.9191 5.54357C22.1823 5.33309 22.4458 5.13408 22.7076 4.94378L22.7066 4.94286Z" fill="url(#paint1_linear_19771_26796)"/>
<path id="Fill 18" fill-rule="evenodd" clip-rule="evenodd" d="M27.0153 2.35063C26.6764 2.49508 26.3315 2.66337 25.9927 2.8422C25.944 2.86926 25.8958 2.8954 25.8485 2.92108C25.8246 2.93392 25.8012 2.94676 25.7778 2.95868C25.7071 2.9972 25.6373 3.03434 25.5661 3.0724C25.5358 3.08891 25.505 3.10588 25.4743 3.1233C25.4669 3.12697 25.46 3.1311 25.4527 3.13476C25.4426 3.14027 25.432 3.14623 25.4219 3.15173C25.3751 3.17833 25.3278 3.20492 25.2809 3.23198C25.1335 3.3159 24.9866 3.40119 24.8397 3.48969C24.7983 3.51445 24.7575 3.53921 24.7161 3.56489C24.6693 3.59332 24.6225 3.62267 24.5756 3.65248C24.4824 3.71209 24.3892 3.77354 24.2964 3.83682L24.2955 3.8359H24.2951C23.3951 3.25674 22.4937 2.76654 21.5721 2.36989C21.0487 2.11631 20.516 1.89666 19.9797 1.71782C19.9494 1.70177 19.914 1.70177 19.8837 1.67792C19.0191 1.37344 18.1411 1.1382 17.2627 1.01072C17.2948 0.994214 17.3187 0.994214 17.3504 0.994214C17.8041 0.919928 18.2532 0.847017 18.7059 0.813084C19.0466 0.78557 19.3837 0.768603 19.7248 0.761267C19.8392 0.758974 19.954 0.758057 20.0697 0.758057C20.1689 0.758057 20.2685 0.758974 20.3681 0.761267C20.6643 0.767228 20.9614 0.782819 21.2567 0.808498C21.2819 0.810791 21.3076 0.813084 21.3329 0.815835C21.7613 0.856647 22.186 0.922679 22.6067 0.994214C22.6411 0.994214 22.6769 1.01026 22.7104 1.01026L22.7159 1.01118C23.2422 1.10381 23.7734 1.23083 24.3047 1.37298H24.3217C25.2313 1.62565 26.1267 1.95398 27.0153 2.35063Z" fill="url(#paint2_linear_19771_26796)"/>
</g>
</g>
<defs>
<linearGradient id="paint0_linear_19771_26796" x1="91.2663" y1="-0.421497" x2="84.8568" y2="28.524" gradientUnits="userSpaceOnUse">
<stop stop-color="#F6921E"/>
<stop offset="0.14" stop-color="#E37B1D"/>
<stop offset="0.33" stop-color="#CD621C"/>
<stop offset="0.54" stop-color="#BE501B"/>
<stop offset="0.75" stop-color="#B5451A"/>
<stop offset="1" stop-color="#B2421A"/>
</linearGradient>
<linearGradient id="paint1_linear_19771_26796" x1="4.99544" y1="0.331223" x2="2.68014" y2="12.7394" gradientUnits="userSpaceOnUse">
<stop stop-color="#F6921E"/>
<stop offset="0.14" stop-color="#E37B1D"/>
<stop offset="0.33" stop-color="#CD621C"/>
<stop offset="0.54" stop-color="#BE501B"/>
<stop offset="0.75" stop-color="#B5451A"/>
<stop offset="1" stop-color="#B2421A"/>
</linearGradient>
<linearGradient id="paint2_linear_19771_26796" x1="14.8239" y1="0.554869" x2="14.0481" y2="6.56711" gradientUnits="userSpaceOnUse">
<stop stop-color="#F6921E"/>
<stop offset="0.14" stop-color="#E37B1D"/>
<stop offset="0.33" stop-color="#CD621C"/>
<stop offset="0.54" stop-color="#BE501B"/>
<stop offset="0.75" stop-color="#B5451A"/>
<stop offset="1" stop-color="#B2421A"/>
</linearGradient>
</defs>
</svg>
